<svg width="44" height="30" viewBox="0 0 44 30" fill="none" xmlns="http://www.w3.org/2000/svg">
<path d="M23.2261 16.2379L16.5611 27.6527L9.89623 16.2379H23.2261ZM25.0116 15.2177H8.10352L16.5611 29.6717L25.0116 15.2177Z" fill="white"/>
<path d="M34.8136 2.0404L41.4785 13.4552H28.1487L34.8136 2.0404ZM34.8136 0L26.356 14.454H43.2712L34.8136 0Z" fill="white"/>
<path d="M0 0L7.09143 12.7846L14.8406 0.321025L0 0Z" fill="#4CAF4F"/>
<path d="M16.5612 1.11987L23.9997 13.8332H9.1084L16.5612 1.11987Z" fill="#4CAF4F"/>
<path d="M25.9151 16.6089L33.3607 29.6718H18.1152L25.6837 16.6089H25.9151Z" fill="#4CAF4F"/>
<path d="M27.5271 15.8169L34.8137 28.68L42.2014 15.8169H27.5271Z" fill="#4CAF4F"/>
</svg>
