<svg width="41" height="33" viewBox="0 0 41 33" fill="none" xmlns="http://www.w3.org/2000/svg">
<mask id="path-1-inside-1_16_1456" fill="white">
<path d="M25.3507 16.1091C25.0506 16.1091 24.772 16.0363 24.5245 15.9192V15.9223C24.5245 16.339 24.341 16.7303 24.0081 17.0234C23.6752 17.3173 23.2322 17.4793 22.7606 17.4793C22.4562 17.4793 22.174 17.4047 21.9239 17.2844C21.8986 17.6656 21.726 18.022 21.418 18.2941C21.0851 18.588 20.6421 18.75 20.1703 18.75C19.2328 18.75 18.4715 18.0995 18.4167 17.2842C18.1266 17.4226 17.7987 17.4951 17.4604 17.4759C16.5382 17.4226 15.816 16.7192 15.816 15.8743V8.87103L14.9126 10.2526C14.5686 10.781 13.9245 11.1091 13.231 11.1091C12.8931 11.1091 12.5592 11.0308 12.2636 10.8813C11.8955 10.6929 11.6321 10.3904 11.5226 10.0286C11.4125 9.66659 11.4695 9.28796 11.6823 8.96348C11.6826 8.96348 14.6381 4.44557 14.8184 4.16805C14.8399 4.12633 14.9009 4.0053 14.9529 3.90216C15.0025 3.80368 15.0451 3.70261 15.0859 3.60102C15.9772 1.37981 18.1841 5.33934e-05 20.8458 5.33934e-05C24.3022 5.33934e-05 27.1142 2.69164 27.1142 6.00009L27.1144 14.5519C27.1144 14.9681 26.9312 15.3591 26.5986 15.6533C26.2657 15.9472 25.8227 16.1092 25.3506 16.1092L25.3507 16.1091ZM20.8458 0.827408C18.5588 0.827408 16.7359 1.96773 15.9693 3.87771C15.9203 3.999 15.8692 4.12028 15.8096 4.23846C15.6367 4.58081 15.6367 4.58081 15.588 4.63004L15.5815 4.62512C15.3402 5.02707 14.6232 6.12304 12.4939 9.37755C12.4064 9.51101 12.3832 9.66599 12.4278 9.81423C12.473 9.96247 12.5813 10.0874 12.7314 10.1638C13.197 10.3999 13.8347 10.2475 14.1001 9.83936L15.8789 7.12078C15.9852 6.95881 16.2001 6.87925 16.4062 6.92849C16.6111 6.97695 16.7535 7.141 16.7535 7.32811V15.8746C16.7535 16.2778 17.0982 16.6258 17.5219 16.6505C17.7661 16.6619 17.9939 16.5896 18.1651 16.4387C18.3207 16.3014 18.4064 16.1184 18.4064 15.9227V10.3333C18.4064 10.1047 18.6164 9.91938 18.8753 9.91938C19.1342 9.91938 19.3442 10.1044 19.3442 10.3333L19.3439 17.1932C19.3439 17.5954 19.7147 17.9228 20.1703 17.9228C20.3917 17.9228 20.5995 17.8471 20.7554 17.7097C20.911 17.5721 20.9968 17.3886 20.9968 17.1932V10.3332C20.9968 10.1047 21.2064 9.91937 21.4656 9.91937C21.7246 9.91937 21.9345 10.1044 21.9345 10.3332L21.9342 15.8585V15.9227C21.9342 16.3247 22.305 16.652 22.7609 16.652C22.982 16.652 23.1893 16.576 23.346 16.4382C23.5016 16.3011 23.5874 16.1181 23.5874 15.9225V10.333C23.5874 10.1044 23.797 9.91908 24.0562 9.91908C24.3152 9.91908 24.5251 10.1041 24.5251 10.333L24.5245 14.552C24.5245 14.9545 24.8953 15.2818 25.3506 15.2818C25.5723 15.2818 25.7796 15.2059 25.9352 15.0688C26.0914 14.9309 26.1768 14.7474 26.1768 14.552L26.1771 6.00028C26.1771 3.14828 23.7855 0.827493 20.8458 0.827493L20.8458 0.827408Z"/>
</mask>
<path d="M25.3507 16.1091C25.0506 16.1091 24.772 16.0363 24.5245 15.9192V15.9223C24.5245 16.339 24.341 16.7303 24.0081 17.0234C23.6752 17.3173 23.2322 17.4793 22.7606 17.4793C22.4562 17.4793 22.174 17.4047 21.9239 17.2844C21.8986 17.6656 21.726 18.022 21.418 18.2941C21.0851 18.588 20.6421 18.75 20.1703 18.75C19.2328 18.75 18.4715 18.0995 18.4167 17.2842C18.1266 17.4226 17.7987 17.4951 17.4604 17.4759C16.5382 17.4226 15.816 16.7192 15.816 15.8743V8.87103L14.9126 10.2526C14.5686 10.781 13.9245 11.1091 13.231 11.1091C12.8931 11.1091 12.5592 11.0308 12.2636 10.8813C11.8955 10.6929 11.6321 10.3904 11.5226 10.0286C11.4125 9.66659 11.4695 9.28796 11.6823 8.96348C11.6826 8.96348 14.6381 4.44557 14.8184 4.16805C14.8399 4.12633 14.9009 4.0053 14.9529 3.90216C15.0025 3.80368 15.0451 3.70261 15.0859 3.60102C15.9772 1.37981 18.1841 5.33934e-05 20.8458 5.33934e-05C24.3022 5.33934e-05 27.1142 2.69164 27.1142 6.00009L27.1144 14.5519C27.1144 14.9681 26.9312 15.3591 26.5986 15.6533C26.2657 15.9472 25.8227 16.1092 25.3506 16.1092L25.3507 16.1091ZM20.8458 0.827408C18.5588 0.827408 16.7359 1.96773 15.9693 3.87771C15.9203 3.999 15.8692 4.12028 15.8096 4.23846C15.6367 4.58081 15.6367 4.58081 15.588 4.63004L15.5815 4.62512C15.3402 5.02707 14.6232 6.12304 12.4939 9.37755C12.4064 9.51101 12.3832 9.66599 12.4278 9.81423C12.473 9.96247 12.5813 10.0874 12.7314 10.1638C13.197 10.3999 13.8347 10.2475 14.1001 9.83936L15.8789 7.12078C15.9852 6.95881 16.2001 6.87925 16.4062 6.92849C16.6111 6.97695 16.7535 7.141 16.7535 7.32811V15.8746C16.7535 16.2778 17.0982 16.6258 17.5219 16.6505C17.7661 16.6619 17.9939 16.5896 18.1651 16.4387C18.3207 16.3014 18.4064 16.1184 18.4064 15.9227V10.3333C18.4064 10.1047 18.6164 9.91938 18.8753 9.91938C19.1342 9.91938 19.3442 10.1044 19.3442 10.3333L19.3439 17.1932C19.3439 17.5954 19.7147 17.9228 20.1703 17.9228C20.3917 17.9228 20.5995 17.8471 20.7554 17.7097C20.911 17.5721 20.9968 17.3886 20.9968 17.1932V10.3332C20.9968 10.1047 21.2064 9.91937 21.4656 9.91937C21.7246 9.91937 21.9345 10.1044 21.9345 10.3332L21.9342 15.8585V15.9227C21.9342 16.3247 22.305 16.652 22.7609 16.652C22.982 16.652 23.1893 16.576 23.346 16.4382C23.5016 16.3011 23.5874 16.1181 23.5874 15.9225V10.333C23.5874 10.1044 23.797 9.91908 24.0562 9.91908C24.3152 9.91908 24.5251 10.1041 24.5251 10.333L24.5245 14.552C24.5245 14.9545 24.8953 15.2818 25.3506 15.2818C25.5723 15.2818 25.7796 15.2059 25.9352 15.0688C26.0914 14.9309 26.1768 14.7474 26.1768 14.552L26.1771 6.00028C26.1771 3.14828 23.7855 0.827493 20.8458 0.827493L20.8458 0.827408Z" fill="#4CAF4F"/>
<path d="M25.3507 16.1091V14.7758L25.9871 17.2807L25.3507 16.1091ZM24.5245 15.9192H23.1912V13.8129L25.0949 14.714L24.5245 15.9192ZM24.0081 17.0234L23.1257 16.0238L23.127 16.0227L24.0081 17.0234ZM21.9239 17.2844L20.5935 17.1963L20.7238 15.2282L22.5016 16.0827L21.9239 17.2844ZM21.418 18.2941L22.3009 19.2933L22.3004 19.2937L21.418 18.2941ZM18.4167 17.2842L17.8425 16.0808L19.6151 15.2351L19.747 17.1946L18.4167 17.2842ZM17.4604 17.4759L17.3849 18.8071L17.3834 18.807L17.4604 17.4759ZM15.816 8.87103L14.7001 8.14132L17.1494 4.39572V8.87103H15.816ZM14.9126 10.2526L13.7953 9.52502L13.7967 9.52287L14.9126 10.2526ZM12.2636 10.8813L11.6618 12.0711L11.6562 12.0682L12.2636 10.8813ZM11.5226 10.0286L12.7983 9.64072L12.7988 9.64237L11.5226 10.0286ZM11.6823 8.96348L10.5674 8.23216L10.9623 7.63014H11.6823V8.96348ZM14.8184 4.16805L16.0045 4.77726L15.9735 4.83759L15.9365 4.89447L14.8184 4.16805ZM14.9529 3.90216L13.7621 3.30226L13.7622 3.30224L14.9529 3.90216ZM15.0859 3.60102L16.3233 4.09756L16.3232 4.09795L15.0859 3.60102ZM27.1142 6.00009L25.7808 6.00013V6.00009H27.1142ZM27.1144 14.5519L28.4478 14.5518V14.5519H27.1144ZM26.5986 15.6533L27.4819 16.6521L27.481 16.6529L26.5986 15.6533ZM25.3506 16.1092V17.4425L24.7142 14.9375L25.3506 16.1092ZM20.8458 0.827408V-0.505926H22.6788L22.1144 1.238L20.8458 0.827408ZM15.9693 3.87771L17.2067 4.37432L17.2055 4.37743L15.9693 3.87771ZM15.8096 4.23846L17.0001 4.83886L16.9998 4.83961L15.8096 4.23846ZM15.588 4.63004L16.5356 5.56801L15.7114 6.40072L14.7796 5.69039L15.588 4.63004ZM15.5815 4.62512L14.4384 3.9388L15.2052 2.66162L16.3899 3.56477L15.5815 4.62512ZM12.4939 9.37755L13.6096 10.1076L13.6089 10.1085L12.4939 9.37755ZM12.4278 9.81423L11.1525 10.2032L11.1511 10.1986L12.4278 9.81423ZM12.7314 10.1638L12.1284 11.353L12.126 11.3518L12.7314 10.1638ZM14.1001 9.83936L12.9822 9.11257L12.9844 9.10932L14.1001 9.83936ZM15.8789 7.12078L14.7632 6.39074L14.7642 6.3893L15.8789 7.12078ZM16.4062 6.92849L16.0994 8.22604L16.0964 8.22532L16.4062 6.92849ZM17.5219 16.6505L17.4597 17.9823L17.4521 17.982L17.4445 17.9815L17.5219 16.6505ZM18.1651 16.4387L19.0475 17.4383L19.0466 17.4391L18.1651 16.4387ZM19.3442 10.3333L20.6775 10.3333L20.6775 10.3333L19.3442 10.3333ZM19.3439 17.1932L18.0105 17.1932L18.0105 17.1932L19.3439 17.1932ZM20.7554 17.7097L21.6387 18.7085L21.6368 18.7102L20.7554 17.7097ZM21.9345 10.3332L23.2678 10.3332L23.2678 10.3333L21.9345 10.3332ZM21.9342 15.8585L20.6008 15.8585L20.6008 15.8584L21.9342 15.8585ZM23.346 16.4382L24.2275 17.4386L24.2266 17.4394L23.346 16.4382ZM24.5251 10.333L25.8584 10.333L25.8584 10.3331L24.5251 10.333ZM24.5245 14.552L23.1912 14.552L23.1912 14.5519L24.5245 14.552ZM25.9352 15.0688L26.8175 16.0684L26.8166 16.0692L25.9352 15.0688ZM26.1768 14.552L24.8435 14.552L24.8435 14.552L26.1768 14.552ZM26.1771 6.00028L27.5104 6.00028L27.5104 6.00033L26.1771 6.00028ZM20.8458 0.827493V2.16083H19.0128L19.5773 0.416901L20.8458 0.827493ZM25.3507 17.4425C24.8312 17.4425 24.3588 17.3158 23.9541 17.1243L25.0949 14.714C25.1853 14.7567 25.27 14.7758 25.3507 14.7758V17.4425ZM25.8579 15.9192V15.9223H23.1912V15.9192H25.8579ZM25.8579 15.9223C25.8579 16.749 25.4887 17.4963 24.8892 18.0242L23.127 16.0227C23.1632 15.9909 23.1781 15.9656 23.184 15.9531C23.1895 15.9413 23.1912 15.9324 23.1912 15.9223H25.8579ZM24.8905 18.023C24.2982 18.5459 23.5355 18.8126 22.7606 18.8126V16.146C22.9288 16.146 23.0522 16.0888 23.1257 16.0239L24.8905 18.023ZM22.7606 18.8126C22.2343 18.8126 21.7558 18.683 21.3462 18.4861L22.5016 16.0827C22.5923 16.1263 22.6781 16.146 22.7606 16.146V18.8126ZM23.2543 17.3725C23.2053 18.1129 22.866 18.7939 22.3009 19.2933L20.5351 17.295C20.5643 17.2692 20.577 17.2488 20.5828 17.2371C20.5887 17.2253 20.5924 17.2127 20.5935 17.1963L23.2543 17.3725ZM22.3004 19.2937C21.7081 19.8166 20.9454 20.0833 20.1703 20.0833V17.4166C20.3389 17.4166 20.4622 17.3594 20.5357 17.2945L22.3004 19.2937ZM20.1703 20.0833C18.6619 20.0833 17.1966 19.0123 17.0863 17.3737L19.747 17.1946C19.7474 17.2014 19.752 17.2446 19.821 17.3026C19.8906 17.3612 20.0098 17.4166 20.1703 17.4166V20.0833ZM18.9908 18.4876C18.5131 18.7154 17.9628 18.8399 17.3849 18.8071L17.5359 16.1447C17.6345 16.1503 17.7401 16.1297 17.8425 16.0808L18.9908 18.4876ZM17.3834 18.807C15.8609 18.7189 14.4827 17.5263 14.4827 15.8743H17.1494C17.1494 15.9044 17.1602 15.9559 17.2227 16.0168C17.2868 16.0792 17.3942 16.1365 17.5375 16.1448L17.3834 18.807ZM14.4827 15.8743V8.87103H17.1494V15.8743H14.4827ZM16.932 9.60074L16.0286 10.9823L13.7967 9.52287L14.7001 8.14132L16.932 9.60074ZM16.03 10.9801C15.4121 11.929 14.3221 12.4424 13.231 12.4424V9.77575C13.5268 9.77575 13.725 9.63303 13.7953 9.52502L16.03 10.9801ZM13.231 12.4424C12.6897 12.4424 12.1491 12.3175 11.6618 12.0711L12.8654 9.69149C12.9694 9.7441 13.0964 9.77575 13.231 9.77575V12.4424ZM11.6562 12.0682C11.0006 11.7327 10.4717 11.1592 10.2464 10.4149L12.7988 9.64237C12.7969 9.63624 12.7954 9.63714 12.8023 9.64511C12.8097 9.6537 12.8298 9.67323 12.871 9.69435L11.6562 12.0682ZM10.2469 10.4165C10.0182 9.66433 10.1444 8.87703 10.5674 8.23216L12.7972 9.69479C12.7922 9.70239 12.7973 9.69721 12.7999 9.67985C12.8011 9.67194 12.8014 9.66375 12.8008 9.65602C12.8002 9.64829 12.799 9.64301 12.7983 9.64072L10.2469 10.4165ZM11.6823 7.63014C11.0615 7.78347 10.5793 8.21443 10.5751 8.22067C10.5737 8.22276 10.5716 8.22591 10.5709 8.22691C10.5705 8.22748 10.5699 8.22847 10.5696 8.22879C10.5695 8.229 10.5692 8.22942 10.5692 8.22951C10.569 8.2298 10.5691 8.22964 10.5697 8.22868C10.5709 8.22693 10.5728 8.22401 10.5755 8.2198C10.581 8.21145 10.5892 8.19892 10.6001 8.18237C10.6217 8.14932 10.6535 8.10074 10.6941 8.03871C10.7752 7.9147 10.8914 7.73718 11.0313 7.52325C11.3112 7.0954 11.6863 6.52203 12.067 5.93998C12.8296 4.77407 13.6117 3.57812 13.7004 3.44163L15.9365 4.89447C15.8449 5.0355 15.059 6.23726 14.2987 7.39968C13.918 7.9818 13.5428 8.55525 13.2629 8.98318C13.1229 9.19715 13.0067 9.37476 12.9254 9.49889C12.8848 9.56095 12.8529 9.6097 12.8311 9.64297C12.8203 9.65958 12.8118 9.67245 12.8061 9.68122C12.8033 9.68556 12.8009 9.68913 12.7992 9.69172C12.7984 9.69293 12.7974 9.69441 12.7965 9.69579C12.7962 9.69631 12.7952 9.69783 12.794 9.69963C12.7932 9.70077 12.7911 9.70402 12.7896 9.70618C12.7854 9.71249 12.3031 10.1435 11.6823 10.2968V7.63014ZM13.6324 3.55884C13.6508 3.52299 13.7089 3.40795 13.7621 3.30226L16.1437 4.50206C16.093 4.60266 16.0289 4.72966 16.0045 4.77726L13.6324 3.55884ZM13.7622 3.30224C13.7862 3.25461 13.8122 3.19489 13.8486 3.10408L16.3232 4.09795C16.278 4.21033 16.2189 4.35274 16.1437 4.50208L13.7622 3.30224ZM13.8485 3.10448C14.9705 0.308247 17.7185 -1.33328 20.8458 -1.33328V1.33339C18.6498 1.33339 16.9839 2.45138 16.3233 4.09756L13.8485 3.10448ZM20.8458 -1.33328C24.983 -1.33328 28.4475 1.90088 28.4475 6.00009H25.7808C25.7808 3.48239 23.6214 1.33339 20.8458 1.33339V-1.33328ZM28.4475 6.00004L28.4478 14.5518L25.7811 14.5519L25.7808 6.00013L28.4475 6.00004ZM28.4478 14.5519C28.4478 15.3782 28.0789 16.1241 27.4819 16.6521L25.7153 14.6545C25.7524 14.6217 25.7678 14.5957 25.7738 14.5828C25.7795 14.5707 25.7811 14.5617 25.7811 14.5519H28.4478ZM27.481 16.6529C26.8886 17.1758 26.1258 17.4425 25.3506 17.4425V14.7758C25.5195 14.7758 25.6428 14.7185 25.7162 14.6537L27.481 16.6529ZM24.7142 14.9375L24.7142 14.9375L25.9871 17.2807L25.9871 17.2808L24.7142 14.9375ZM20.8458 2.16074C19.025 2.16074 17.7427 3.03881 17.2067 4.37432L14.7319 3.3811C15.729 0.896652 18.0925 -0.505926 20.8458 -0.505926V2.16074ZM17.2055 4.37743C17.153 4.50724 17.0853 4.66993 17.0001 4.83886L14.6191 3.63806C14.6531 3.57063 14.6876 3.49075 14.7332 3.378L17.2055 4.37743ZM16.9998 4.83961C16.9232 4.99119 16.8603 5.1166 16.8126 5.20099C16.7828 5.25359 16.7365 5.33105 16.6709 5.41534C16.6055 5.49935 16.5415 5.562 16.5356 5.56801L14.6403 3.69207C14.6441 3.68824 14.6434 3.68897 14.6421 3.69035C14.6402 3.69223 14.6349 3.69768 14.6278 3.70532C14.612 3.7224 14.5904 3.74677 14.5668 3.77712C14.5203 3.83686 14.494 3.88369 14.4919 3.88735C14.4905 3.88989 14.492 3.88733 14.4978 3.87637C14.5034 3.86572 14.5113 3.85059 14.5224 3.82881C14.5452 3.78435 14.5755 3.72445 14.6195 3.63731L16.9998 4.83961ZM14.7796 5.69039L14.7731 5.68546L16.3899 3.56477L16.3963 3.5697L14.7796 5.69039ZM16.7246 5.31143C16.4658 5.7426 15.7251 6.87426 13.6096 10.1076L11.3781 8.64754C13.5214 5.37181 14.2146 4.31154 14.4384 3.9388L16.7246 5.31143ZM13.6089 10.1085C13.7313 9.92197 13.7768 9.66986 13.7045 9.42984L11.1511 10.1986C10.9896 9.66212 11.0815 9.10006 11.3788 8.64656L13.6089 10.1085ZM13.7031 9.42526C13.6333 9.19627 13.4792 9.04843 13.3367 8.97584L12.126 11.3518C11.6835 11.1263 11.3127 10.7287 11.1525 10.2032L13.7031 9.42526ZM13.3343 8.97463C13.2507 8.93221 13.1981 8.94228 13.1825 8.94599C13.1712 8.94869 13.0724 8.97384 12.9822 9.11257L15.2179 10.5662C14.8623 11.1131 14.312 11.4185 13.7991 11.5404C13.2819 11.6633 12.6777 11.6315 12.1284 11.353L13.3343 8.97463ZM12.9844 9.10932L14.7632 6.39074L16.9946 7.85082L15.2158 10.5694L12.9844 9.10932ZM14.7642 6.3893C15.2099 5.70997 16.0208 5.46555 16.716 5.63165L16.0964 8.22532C16.3794 8.29294 16.7605 8.20764 16.9937 7.85226L14.7642 6.3893ZM16.7131 5.63094C17.4152 5.79698 18.0869 6.4216 18.0869 7.32811H15.4202C15.4202 7.86039 15.8071 8.15692 16.0994 8.22603L16.7131 5.63094ZM18.0869 7.32811V15.8746H15.4202V7.32811H18.0869ZM18.0869 15.8746C18.0869 15.6889 18.0078 15.5487 17.9262 15.4663C17.8447 15.3839 17.7311 15.327 17.5992 15.3194L17.4445 17.9815C16.3753 17.9194 15.4202 17.0424 15.4202 15.8746H18.0869ZM17.584 15.3186C17.5272 15.3159 17.4037 15.3325 17.2836 15.4384L19.0466 17.4391C18.5842 17.8466 18.005 18.0078 17.4597 17.9823L17.584 15.3186ZM17.2827 15.4391C17.1722 15.5367 17.0731 15.7093 17.0731 15.9227H19.7398C19.7398 16.5275 19.4692 17.066 19.0475 17.4383L17.2827 15.4391ZM17.0731 15.9227V10.3333H19.7398V15.9227H17.0731ZM17.0731 10.3333C17.0731 9.21686 18.0411 8.58604 18.8753 8.58604V11.2527C19.1916 11.2527 19.7398 10.9925 19.7398 10.3333H17.0731ZM18.8753 8.58604C19.7089 8.58604 20.6775 9.2161 20.6775 10.3333H18.0108C18.0108 10.9927 18.5596 11.2527 18.8753 11.2527V8.58604ZM20.6775 10.3333L20.6772 17.1933L18.0105 17.1932L18.0108 10.3332L20.6775 10.3333ZM20.6772 17.1932C20.6772 16.9668 20.57 16.7988 20.4686 16.7092C20.3694 16.6217 20.2605 16.5894 20.1703 16.5894V19.2561C19.1395 19.2561 18.0105 18.4833 18.0105 17.1932H20.6772ZM20.1703 16.5894C20.0902 16.5894 19.9784 16.6173 19.874 16.7093L21.6368 18.7102C21.2206 19.0769 20.6931 19.2561 20.1703 19.2561V16.5894ZM19.8721 16.711C19.762 16.8084 19.6634 16.9802 19.6634 17.1932H22.3301C22.3301 17.7971 22.0601 18.3359 21.6387 18.7085L19.8721 16.711ZM19.6634 17.1932V10.3332H22.3301V17.1932H19.6634ZM19.6634 10.3332C19.6634 9.21736 20.6306 8.58604 21.4656 8.58604V11.2527C21.7822 11.2527 22.3301 10.992 22.3301 10.3332H19.6634ZM21.4656 8.58604C22.2992 8.58604 23.2678 9.21609 23.2678 10.3332H20.6011C20.6011 10.9927 21.1499 11.2527 21.4656 11.2527V8.58604ZM23.2678 10.3333L23.2675 15.8585L20.6008 15.8584L20.6011 10.3332L23.2678 10.3333ZM23.2675 15.8585V15.9227H20.6008V15.8585H23.2675ZM23.2675 15.9227C23.2675 15.6959 23.1601 15.5277 23.0587 15.4383C22.9595 15.3508 22.8507 15.3186 22.7609 15.3186V17.9853C21.7305 17.9853 20.6008 17.2131 20.6008 15.9227H23.2675ZM22.7609 15.3186C22.6774 15.3186 22.5664 15.3482 22.4655 15.4369L24.2266 17.4394C23.8121 17.8038 23.2866 17.9853 22.7609 17.9853V15.3186ZM22.4646 15.4377C22.353 15.5361 22.254 15.7092 22.254 15.9225H24.9207C24.9207 16.527 24.6503 17.0661 24.2275 17.4386L22.4646 15.4377ZM22.254 15.9225V10.333H24.9207V15.9225H22.254ZM22.254 10.333C22.254 9.21706 23.2212 8.58575 24.0562 8.58575V11.2524C24.3728 11.2524 24.9207 10.9917 24.9207 10.333H22.254ZM24.0562 8.58575C24.8898 8.58575 25.8584 9.2158 25.8584 10.333H23.1918C23.1918 10.9924 23.7405 11.2524 24.0562 11.2524V8.58575ZM25.8584 10.3331L25.8578 14.5522L23.1912 14.5519L23.1918 10.3328L25.8584 10.3331ZM25.8578 14.552C25.8578 14.326 25.7509 14.1581 25.6494 14.0685C25.5503 13.9809 25.4412 13.9485 25.3506 13.9485V16.6152C24.3194 16.6152 23.1912 15.8417 23.1912 14.552H25.8578ZM25.3506 13.9485C25.2694 13.9485 25.1574 13.9771 25.0537 14.0684L26.8166 16.0692C26.4017 16.4347 25.8752 16.6152 25.3506 16.6152V13.9485ZM25.0528 14.0692C24.9417 14.1672 24.8435 14.3398 24.8435 14.552H27.5101C27.5101 15.1551 27.241 15.6946 26.8175 16.0684L25.0528 14.0692ZM24.8435 14.552L24.8437 6.00024L27.5104 6.00033L27.5101 14.5521L24.8435 14.552ZM24.8437 6.00028C24.8437 3.92225 23.0873 2.16083 20.8458 2.16083V-0.505841C24.4838 -0.505841 27.5104 2.37432 27.5104 6.00028H24.8437ZM19.5773 0.416901L19.5773 0.416816L22.1144 1.238L22.1143 1.23808L19.5773 0.416901Z" fill="#4CAF4F" mask="url(#path-1-inside-1_16_1456)"/>
<path d="M18.806 25.4651C18.8269 25.4916 18.8468 25.5187 18.8658 25.5466M18.806 25.4651L18.261 27.6831C18.665 27.469 18.9506 27.129 19.0651 26.7258M18.806 25.4651C18.7419 25.5088 18.6754 25.5495 18.6067 25.5873C18.6089 25.5907 18.6112 25.594 18.6135 25.5973C18.6136 25.5974 18.6136 25.5975 18.6137 25.5976L18.806 25.4651ZM18.8658 25.5466C19.1086 25.9037 19.1793 26.3222 19.0651 26.7258M18.8658 25.5466L18.6667 25.6819L18.7975 26.706C18.8024 26.6887 18.8069 26.6713 18.8111 26.6539L19.0651 26.7258M18.8658 25.5466L18.6668 25.682C18.8365 25.9747 18.8917 26.318 18.8112 26.6536L19.0651 26.7258M1.83684 24.098C1.78624 24.1573 1.73088 24.2182 1.67024 24.2832L1.7037 24.3144L1.83684 24.098ZM1.83684 24.098L1.65875 23.9562M1.83684 24.098L0.900115 30.4237C-0.469495 28.4088 -0.264238 26.0281 1.43474 24.2112C1.51254 24.1282 1.58917 24.0438 1.65875 23.9562M1.65875 23.9562C1.73244 23.8636 1.81846 23.7548 1.84782 23.7175L1.92349 23.9922C1.91725 24.0001 1.91082 24.0082 1.90419 24.0165C1.88279 24.0434 1.86042 24.0704 1.83704 24.0978L1.65875 23.9562ZM4.32831 18.5225L4.32867 18.5219L4.32869 18.5219C4.32856 18.5221 4.32844 18.5223 4.32831 18.5225ZM4.32831 18.5225L4.89293 18.8769L5.10286 18.9959L4.32831 18.5225ZM2.15774 24.7379C0.696815 26.3004 0.527183 28.2667 1.70356 29.998M2.15774 24.7379L1.99643 24.5875L1.99514 24.5872C1.96994 24.6148 1.9452 24.6414 1.92131 24.6669L1.70356 29.998M2.15774 24.7379L1.99693 24.5876L2.24757 24.6403C2.21794 24.673 2.18793 24.7056 2.15774 24.7379ZM1.70356 29.998C2.43224 31.0704 3.63656 31.8057 5.09478 32.0684L1.70356 29.998ZM10.0731 23.4547C10.0732 23.4547 10.0732 23.4547 10.0732 23.4548L10.0731 23.4546C10.0731 23.4546 10.0731 23.4546 10.0731 23.4547ZM10.0731 23.4547C10.073 23.4545 10.0729 23.4544 10.0728 23.4542C10.0318 23.3941 9.98109 23.3731 9.95337 23.367C9.92514 23.3607 9.88997 23.3623 9.85287 23.3818L15.1992 20.5505L15.1993 20.5505L15.2825 20.5064L15.4288 20.4289H15.4292L15.8014 20.2318L15.7904 20.0231L15.4898 19.9378L15.7904 20.023L15.7747 19.7252C15.7662 19.5639 15.7129 19.4127 15.6109 19.2828L15.6105 19.2823C15.5891 19.255 15.5658 19.2289 15.5407 19.2039L15.3643 19.3421M10.0731 23.4547L15.5953 21.0953C15.595 21.0953 15.595 21.0956 15.5947 21.0956H15.5945L10.1649 23.9709C9.94234 24.0891 9.65461 24.0254 9.52162 23.8292C9.38834 23.6333 9.46056 23.379 9.68221 23.2614M15.3643 19.3421C15.5034 19.5194 15.5481 19.7309 15.4894 19.9377C15.4359 20.1261 15.3018 20.2855 15.1121 20.386L9.68221 23.2614M15.3643 19.3421L15.5405 19.2038L14.2155 19.1597C14.6068 18.9521 15.123 19.034 15.3643 19.3421ZM9.68221 23.2614L9.86104 23.5983L9.86136 23.5989L9.99477 23.8502L9.9942 23.8505L9.86105 23.5991L9.86073 23.5985L9.68221 23.2614ZM4.9589 19.2248C5.00258 19.1553 5.04692 19.0848 5.09192 19.0132L4.8849 18.8897C4.86788 18.9168 4.82437 18.986 4.75979 19.0887C4.75048 19.1035 4.74072 19.119 4.73054 19.1352C4.80557 19.1778 4.88335 19.2063 4.9589 19.2248ZM2.47234 23.9771L2.68736 24.0503L2.68988 24.0512L2.82225 23.4214C2.68789 23.6349 2.57823 23.809 2.50469 23.9257C2.49298 23.9443 2.48218 23.9615 2.47234 23.9771ZM2.83492 23.4012L3.08047 23.4528C3.50962 22.7818 4.2832 21.5517 5.71311 19.2778C5.85435 19.0521 6.14306 18.9434 6.41584 18.9929L6.46378 18.9368L6.46386 18.9367L6.59924 19.0525C6.59999 19.0529 6.60073 19.0532 6.60148 19.0536C6.75444 19.1293 6.87951 19.236 6.97052 19.37L2.83492 23.4012ZM11.1856 25.3426L11.1858 25.3425C11.1857 25.3425 11.1857 25.3426 11.1856 25.3426ZM5.08404 18.6358C5.14377 18.6732 5.2013 18.72 5.25405 18.7786L7.05696 18.3309C6.81239 18.2111 6.54728 18.1544 6.28599 18.1544C5.83232 18.1542 5.38982 18.3255 5.08404 18.6358Z" fill="#4CAF4F" stroke="#4CAF4F" stroke-width="1.33333"/>
<path d="M32.8182 18.9954C32.8182 18.9955 32.8181 18.9955 32.8181 18.9955L33.1774 19.2396M32.8182 18.9954L33.1775 19.2396M32.8182 18.9954C32.9612 18.7849 33.1489 18.6178 33.3671 18.4959L32.8182 18.9954ZM33.1774 19.2396C33.1774 19.2396 33.1774 19.2396 33.1775 19.2396M33.1774 19.2396L33.3696 19.3701M33.1774 19.2396L33.3696 19.3701M33.1775 19.2396L33.3696 19.3701M33.1775 19.2396C33.2784 19.1181 33.4141 19.0096 33.5798 18.9273C33.6065 18.9143 33.6337 18.9025 33.6614 18.8918C33.6617 18.8917 33.6619 18.8916 33.6622 18.8915C33.7868 18.8437 33.92 18.82 34.0541 18.82C34.3806 18.8201 34.6626 18.9558 34.8261 19.1522L34.627 19.2773M33.3696 19.3701L38.4196 24.6663C38.3953 24.6405 38.3706 24.6138 38.3456 24.5864C38.3455 24.5863 38.3454 24.5862 38.3453 24.5861L38.1834 24.7376L38.1829 24.7381M33.3696 19.3701C33.4606 19.2361 33.5854 19.1291 33.7407 19.0524C34.0563 18.8985 34.4526 18.9998 34.627 19.2773M33.3696 19.3701C33.1852 19.6415 33.1782 19.9804 33.3523 20.2557M34.627 19.2773L34.8262 19.1522C34.847 19.1772 34.8659 19.2032 34.8827 19.23L34.8831 19.2307C35.7758 20.6506 37.3713 23.1868 37.8186 23.8968C37.8357 23.9238 37.851 23.9482 37.8646 23.9697C37.8972 24.0215 37.9197 24.0571 37.9306 24.0743L37.948 24.1017L37.9679 24.1273C37.9898 24.1553 38.0405 24.2196 38.0946 24.2878C38.0947 24.288 38.0948 24.2881 38.0949 24.2882C38.113 24.3111 38.1315 24.3344 38.1494 24.3569L38.1829 24.7381M34.627 19.2773C36.6155 22.4396 37.3389 23.5892 37.6354 24.0223M38.1829 24.7381L38.1834 24.738L37.6354 24.0223M38.1829 24.7381C38.0896 24.6383 37.998 24.5365 37.9146 24.4315C37.6609 24.1138 37.6545 24.1055 37.6354 24.0223M38.6119 24.2202C38.5735 24.1783 38.5374 24.1377 38.5035 24.0979C38.5034 24.0978 38.5034 24.0978 38.5033 24.0977C38.48 24.0704 38.4578 24.0435 38.4366 24.0168L38.4356 24.0156C38.383 23.9497 38.3429 23.8995 38.3114 23.8596C38.3066 23.8534 38.302 23.8475 38.2975 23.8418C38.2955 23.8393 38.2936 23.8369 38.2917 23.8345C38.2833 23.8236 38.276 23.8143 38.2698 23.8062L38.2569 23.75L38.1855 23.6456C37.9011 23.2304 37.1986 22.1146 35.243 19.0045C35.2429 19.0044 35.2429 19.0043 35.2428 19.0042C35.2258 18.9772 35.2087 18.95 35.1915 18.9227L38.6119 24.2202ZM38.6119 24.2202L38.6704 24.2827C38.6951 24.3092 38.7196 24.3358 38.7437 24.3625L38.9062 24.2107L38.6119 24.2202ZM37.6354 24.0223L35.078 23.0004L33.3523 20.2557M33.3523 20.2557L33.1494 20.384L33.0975 20.3016L33.0983 20.3029L33.149 20.3835L33.3523 20.2557ZM25.2282 20.3855C25.2288 20.3858 25.2291 20.3863 25.2297 20.3865M25.2282 20.3855L30.8687 31.3727L22.5607 26.9733C22.3708 26.8725 22.2366 26.7134 22.1831 26.5247C22.1303 26.3363 22.1635 26.1399 22.2771 25.9724C22.3907 25.8053 22.5716 25.6871 22.7853 25.6399C23.0002 25.5925 23.2219 25.6221 23.4109 25.7221L27.5091 27.8925C27.7316 28.0107 28.019 27.9464 28.1523 27.7508C28.2856 27.5546 28.2137 27.3006 27.9917 27.183M25.2282 20.3855C25.0383 20.2849 24.9041 20.1258 24.8506 19.9372C24.7925 19.7306 24.8369 19.5191 24.976 19.3419L25.2282 20.3855ZM25.2297 20.3865L30.6578 23.2611M25.2297 20.3865L25.2181 20.4084L25.1424 20.5513L27.8218 27.3038L27.8211 27.3034M25.2297 20.3865L25.1542 20.5575L30.4869 23.3814M30.6578 23.2611C30.8798 23.3788 30.9517 23.6327 30.8184 23.8289M30.6578 23.2611L30.4793 23.5979L30.401 23.5445L30.4009 23.5445L30.2674 23.4536C30.3084 23.3935 30.3588 23.3725 30.3863 23.3664C30.4144 23.3602 30.4496 23.3617 30.4869 23.3814M30.6578 23.2611L30.4794 23.598L30.8184 23.8289M30.8184 23.8289C30.6851 24.0246 30.3977 24.0886 30.1752 23.9707L23.511 20.4418C23.322 20.3417 23.0994 20.3122 22.8857 20.3596C22.6714 20.4068 22.4911 20.5249 22.3775 20.6926M30.8184 23.8289L30.4792 23.5984L30.3458 23.8503L30.3456 23.8501L30.4791 23.5983L30.4007 23.5451L30.4006 23.545L30.267 23.4542C30.222 23.5204 30.2057 23.6117 30.2299 23.6971C30.2399 23.7327 30.2554 23.7622 30.273 23.7859C30.273 23.7859 30.273 23.7859 30.2731 23.7859C30.2961 23.8169 30.3227 23.8379 30.3455 23.8501L30.2624 23.8061L30.2623 23.806L24.9195 20.9767C24.9121 20.9728 24.905 20.9688 24.8981 20.9649C24.7551 20.8867 24.625 20.786 24.5151 20.6657L24.5129 20.7074L23.6203 20.2952C23.6118 20.2912 23.6033 20.2874 23.5947 20.2837C23.5947 20.2837 23.5947 20.2836 23.5947 20.2836C23.433 20.2131 23.261 20.1764 23.0884 20.1762C23.0092 20.1762 22.9293 20.1834 22.8501 20.1979L22.8857 20.3596L22.8498 20.198C22.834 20.2009 22.8182 20.2041 22.8025 20.2076L22.8019 20.2077C22.5367 20.2662 22.3267 20.396 22.1856 20.5618L22.3775 20.6926M22.3775 20.6926C22.2636 20.8598 22.2307 21.056 22.2835 21.2446C22.337 21.4333 22.4711 21.5927 22.6608 21.6932L23.9576 22.3797L29.3246 25.2222M22.3775 20.6926L22.1852 20.5623C22.1636 20.5877 22.1436 20.614 22.1253 20.6409L22.125 20.6414C21.9895 20.8407 21.9573 21.0562 22.016 21.2632L22.0161 21.2635C22.021 21.2807 22.0265 21.2978 22.0328 21.3149C22.0329 21.3151 22.033 21.3153 22.033 21.3156C22.0951 21.4844 22.2259 21.6472 22.4359 21.7746L22.5734 21.8581L22.5735 21.8582L23.3447 22.3265C23.4764 22.3565 23.6046 22.4035 23.7253 22.4676L23.8704 22.5444L23.9573 22.3803L23.8704 22.5444L29.1536 25.3424C29.1164 25.3227 29.0813 25.3212 29.0533 25.3274C29.0259 25.3335 28.9753 25.3544 28.9343 25.4147L29.0674 25.5054L29.1536 25.3424L29.154 25.3426L29.0677 25.5056L29.1461 25.559L29.3246 25.2222M29.3246 25.2222C29.5466 25.3399 29.6185 25.5938 29.4852 25.79C29.3519 25.9857 29.0645 26.0494 28.842 25.9318M29.3246 25.2222L29.1462 25.5591L29.4851 25.7899L29.146 25.5595L29.0126 25.8113L29.0124 25.8112M28.842 25.9318L23.4127 23.0564M28.842 25.9318L28.9292 25.7671L29.0124 25.8112M28.842 25.9318L28.9291 25.7671L23.6457 22.9689L23.6456 22.9689L23.5001 22.8919L23.4127 23.0564M23.4127 23.0564C23.0222 22.8491 22.5137 22.9616 22.2789 23.3068C22.1649 23.4742 22.1321 23.6704 22.1849 23.859C22.2383 24.0477 22.3725 24.2068 22.5625 24.3076L23.8936 25.0125L27.9917 27.183M23.4127 23.0564L23.4999 22.8918L22.9952 22.6246L22.3979 22.9357C22.273 23.0008 22.1686 23.0824 22.0873 23.1765C22.0654 23.2019 22.0452 23.2282 22.0267 23.2553C21.891 23.4553 21.859 23.671 21.9177 23.8775L21.9179 23.8784C21.9227 23.8954 21.9282 23.9124 21.9342 23.9292C21.9343 23.9295 21.9344 23.9297 21.9345 23.9299C22.0035 24.1214 22.1537 24.3013 22.3924 24.4277L22.3925 24.4276L22.4025 24.4332L22.4048 24.4345L22.4747 24.473L22.4748 24.4731L23.4859 25.0309L23.485 25.0313C23.5664 25.0584 23.6459 25.0922 23.7227 25.1328L23.7229 25.133L23.8064 25.1772L23.8925 25.0146L23.8064 25.1772L27.8211 27.3034M27.9917 27.183L27.8132 27.5198M27.9917 27.183L27.8132 27.5198M30.4869 23.3814C30.487 23.3815 30.4872 23.3815 30.4873 23.3816L30.4871 23.3815L30.4869 23.3814ZM29.0124 25.8112L29.1459 25.5594L29.0674 25.5061L28.9398 25.747C28.9629 25.778 28.9895 25.7991 29.0124 25.8112ZM27.8211 27.3034C27.7836 27.2837 27.7482 27.2822 27.7201 27.2884C27.6925 27.2946 27.6422 27.3155 27.6014 27.3755L27.7348 27.4664L27.7352 27.4667L27.8132 27.5198M27.8211 27.3034L27.8132 27.5198M23.5816 25.6017L23.5816 25.6017L27.5963 27.7279L27.5965 27.728L27.6795 27.772M23.5816 25.6017L28.1522 27.7507L27.8131 27.5203L27.6797 27.7721L27.6795 27.772M23.5816 25.6017L23.4981 25.5575L23.498 25.5574L22.9942 25.2906L22.7381 25.426L22.3942 25.6076C22.2649 25.676 22.1627 25.7559 22.0863 25.8427C22.0862 25.8428 22.0862 25.8428 22.0862 25.8429C22.0638 25.8683 22.0436 25.8944 22.0256 25.9209L22.0254 25.9212C21.89 26.1206 21.8576 26.3365 21.9158 26.5434C21.9207 26.5607 21.9263 26.5779 21.9324 26.595C21.9325 26.5952 21.9326 26.5954 21.9327 26.5956C22.0023 26.7877 22.1527 26.9673 22.391 27.0935L22.391 27.0935L22.4737 27.1373L22.4738 27.1373L23.5816 25.6017ZM27.6795 27.772C27.6567 27.7599 27.6301 27.7389 27.6071 27.708C27.607 27.7079 27.607 27.7078 27.6069 27.7078C27.5894 27.6841 27.5739 27.6546 27.5638 27.6189C27.5396 27.5336 27.5559 27.4423 27.6009 27.3761L27.7345 27.4669L27.735 27.4672L27.813 27.5202L27.6795 27.772ZM38.2865 23.8788C38.2865 23.8788 38.2863 23.8778 38.2859 23.8762C38.2863 23.8781 38.2865 23.8789 38.2865 23.8788ZM22.4994 22.3621L22.3489 22.2824L22.3485 22.2822C22.2928 22.2527 22.239 22.2198 22.1875 22.1836C21.9311 22.0037 21.7321 21.7441 21.6421 21.4263L21.6416 21.4244C21.6368 21.4074 21.6324 21.3904 21.6284 21.3734C21.6283 21.3733 21.6283 21.3733 21.6283 21.3732C21.5487 21.0388 21.6028 20.6955 21.7731 20.4021C21.7731 20.402 21.7732 20.402 21.7732 20.4019C21.7897 20.3734 21.8074 20.3454 21.8261 20.3179L22.4994 22.3621ZM28.8967 25.6582C28.9067 25.6938 28.9222 25.7232 28.9397 25.7469L29.0671 25.5059L28.9338 25.4153C28.8888 25.4815 28.8725 25.5728 28.8967 25.6582ZM23.0888 19.6708L23.089 19.5096V19.6708C23.343 19.6711 23.5953 19.7321 23.8228 19.8525L23.823 19.8526L23.8244 19.8533L24.1912 20.0475C24.1653 19.9324 24.1553 19.8172 24.1602 19.7039C24.1707 19.4584 24.2507 19.2221 24.3896 19.0155C24.3896 19.0155 24.3896 19.0155 24.3896 19.0155L23.0888 19.6708ZM33.4484 18.4532C33.6375 18.361 33.846 18.315 34.0544 18.3146L33.3679 18.4954C33.3934 18.4812 33.4192 18.4676 33.4455 18.4547L33.4484 18.4532ZM34.0544 18.3146C34.4963 18.3139 34.9374 18.5184 35.1914 18.9225L34.0544 18.3146Z" fill="#4CAF4F" stroke="#4CAF4F" stroke-width="1.33333"/>
</svg>
