<svg width="176" height="33" viewBox="0 0 176 33" fill="none" xmlns="http://www.w3.org/2000/svg">
<g clip-path="url(#clip0_322_41)">
<path opacity="0.1" fill-rule="evenodd" clip-rule="evenodd" d="M0 16.6718C0 7.8352 7.16344 0.671753 16 0.671753C24.8366 0.671753 32 7.8352 32 16.6718C32 25.5083 24.8366 32.6718 16 32.6718C7.16344 32.6718 0 25.5083 0 16.6718Z" fill="white"/>
<path fill-rule="evenodd" clip-rule="evenodd" d="M16.0007 8.13843C13.6832 8.13843 13.3923 8.14856 12.4821 8.18998C11.5736 8.23158 10.9535 8.37541 10.4109 8.58643C9.84969 8.80439 9.37359 9.09595 8.89928 9.57044C8.42461 10.0448 8.13305 10.5209 7.91438 11.0819C7.70282 11.6247 7.55882 12.245 7.51793 13.1531C7.47722 14.0633 7.46655 14.3543 7.46655 16.6718C7.46655 18.9894 7.47686 19.2793 7.51811 20.1896C7.55989 21.098 7.70371 21.7181 7.91456 22.2607C8.13269 22.822 8.42425 23.2981 8.89875 23.7724C9.37288 24.247 9.84898 24.5393 10.4099 24.7573C10.9528 24.9683 11.5731 25.1121 12.4814 25.1537C13.3916 25.1951 13.6823 25.2053 15.9996 25.2053C18.3173 25.2053 18.6073 25.1951 19.5175 25.1537C20.426 25.1121 21.0468 24.9683 21.5897 24.7573C22.1508 24.5393 22.6262 24.247 23.1003 23.7724C23.575 23.2981 23.8665 22.822 24.0852 22.2609C24.295 21.7181 24.439 21.0979 24.4817 20.1898C24.5226 19.2795 24.5332 18.9894 24.5332 16.6718C24.5332 14.3543 24.5226 14.0635 24.4817 13.1532C24.439 12.2448 24.295 11.6247 24.0852 11.0821C23.8665 10.5209 23.575 10.0448 23.1003 9.57044C22.6256 9.09577 22.151 8.80421 21.5892 8.58643C21.0452 8.37541 20.4247 8.23158 19.5163 8.18998C18.606 8.14856 18.3163 8.13843 15.998 8.13843H16.0007ZM15.2351 9.6762C15.4623 9.67584 15.7158 9.6762 16.0006 9.6762C18.2791 9.6762 18.5491 9.68438 19.4489 9.72526C20.2809 9.76331 20.7324 9.90233 21.0332 10.0191C21.4315 10.1738 21.7154 10.3587 22.0139 10.6574C22.3125 10.956 22.4974 11.2405 22.6525 11.6387C22.7693 11.9392 22.9085 12.3907 22.9463 13.2227C22.9872 14.1223 22.9961 14.3925 22.9961 16.6699C22.9961 18.9472 22.9872 19.2175 22.9463 20.117C22.9083 20.949 22.7693 21.4006 22.6525 21.701C22.4978 22.0993 22.3125 22.3828 22.0139 22.6813C21.7152 22.98 21.4316 23.1649 21.0332 23.3195C20.7328 23.4369 20.2809 23.5755 19.4489 23.6136C18.5493 23.6545 18.2791 23.6634 16.0006 23.6634C13.722 23.6634 13.452 23.6545 12.5524 23.6136C11.7204 23.5752 11.2689 23.4362 10.9679 23.3194C10.5697 23.1647 10.2852 22.9798 9.98654 22.6811C9.68787 22.3825 9.50298 22.0987 9.34796 21.7003C9.23116 21.3999 9.09196 20.9483 9.05409 20.1163C9.0132 19.2167 9.00502 18.9465 9.00502 16.6677C9.00502 14.389 9.0132 14.1202 9.05409 13.2206C9.09213 12.3886 9.23116 11.937 9.34796 11.6362C9.50263 11.238 9.68787 10.9535 9.98654 10.6549C10.2852 10.3562 10.5697 10.1713 10.9679 10.0163C11.2687 9.89896 11.7204 9.76029 12.5524 9.72206C13.3396 9.68651 13.6447 9.67584 15.2351 9.67406V9.6762ZM20.5557 11.0931C19.9904 11.0931 19.5317 11.5512 19.5317 12.1168C19.5317 12.6821 19.9904 13.1408 20.5557 13.1408C21.1211 13.1408 21.5797 12.6821 21.5797 12.1168C21.5797 11.5514 21.1211 11.0931 20.5557 11.0931ZM16.0007 12.2896C13.5806 12.2896 11.6184 14.2517 11.6184 16.6718C11.6184 19.0919 13.5806 21.0532 16.0007 21.0532C18.4208 21.0532 20.3823 19.0919 20.3823 16.6718C20.3823 14.2517 18.4208 12.2896 16.0007 12.2896ZM16.0007 13.8274C17.5715 13.8274 18.8451 15.1008 18.8451 16.6718C18.8451 18.2427 17.5715 19.5163 16.0007 19.5163C14.4296 19.5163 13.1562 18.2427 13.1562 16.6718C13.1562 15.1008 14.4296 13.8274 16.0007 13.8274Z" fill="white"/>
<path opacity="0.1" fill-rule="evenodd" clip-rule="evenodd" d="M48 16.6718C48 7.8352 55.1634 0.671753 64 0.671753C72.8366 0.671753 80 7.8352 80 16.6718C80 25.5083 72.8366 32.6718 64 32.6718C55.1634 32.6718 48 25.5083 48 16.6718Z" fill="white"/>
<path fill-rule="evenodd" clip-rule="evenodd" d="M72.5332 16.6599C72.5332 17.237 72.4745 17.8133 72.3591 18.3751C72.2465 18.9235 72.0799 19.4619 71.8615 19.9766C71.6482 20.4822 71.3836 20.9694 71.0744 21.4237C70.7698 21.8752 70.419 22.2988 70.0335 22.6849C69.6473 23.0693 69.2222 23.4192 68.771 23.7251C68.3151 24.0322 67.8272 24.2964 67.3213 24.5107C66.8059 24.7279 66.2662 24.8943 65.7183 25.0066C65.1558 25.1223 64.5774 25.1814 63.9995 25.1814C63.4211 25.1814 62.8428 25.1223 62.2811 25.0066C61.7323 24.8943 61.1927 24.7279 60.6777 24.5107C60.1718 24.2964 59.6834 24.0322 59.2276 23.7251C58.7763 23.4193 58.3513 23.0693 57.9659 22.6849C57.58 22.2988 57.2292 21.8752 56.9241 21.4237C56.6166 20.9694 56.3516 20.4821 56.1374 19.9766C55.9191 19.4619 55.752 18.9234 55.6391 18.3751C55.5249 17.8133 55.4666 17.237 55.4666 16.6599C55.4666 16.0824 55.5249 15.5049 55.6391 14.9444C55.752 14.396 55.9191 13.8567 56.1375 13.3429C56.3516 12.8369 56.6167 12.3493 56.9242 11.8949C57.2292 11.443 57.5801 11.0203 57.9659 10.6337C58.3513 10.2492 58.7764 9.90015 59.2276 9.59475C59.6835 9.28641 60.1719 9.02223 60.6777 8.8075C61.1927 8.58985 61.7323 8.42302 62.2811 8.31153C62.8428 8.19669 63.4212 8.13843 63.9995 8.13843C64.5775 8.13843 65.1558 8.19669 65.7184 8.31153C66.2663 8.42305 66.8059 8.58988 67.3214 8.8075C67.8272 9.02219 68.3152 9.28641 68.771 9.59475C69.2223 9.90015 69.6473 10.2492 70.0336 10.6337C70.419 11.0203 70.7699 11.443 71.0745 11.8949C71.3836 12.3493 71.6482 12.8369 71.8615 13.3429C72.0799 13.8567 72.2465 14.396 72.3591 14.9444C72.4745 15.5049 72.5332 16.0824 72.5332 16.6599ZM60.8901 10.0778C58.8579 11.0361 57.3412 12.906 56.8682 15.1595C57.0604 15.1612 60.0972 15.1995 63.5961 14.2711C62.3348 12.0334 60.9872 10.2072 60.8901 10.0778ZM64.1999 15.3917C60.4476 16.5134 56.847 16.4327 56.7178 16.4278C56.7157 16.506 56.712 16.5817 56.712 16.6599C56.712 18.5294 57.4183 20.2337 58.5792 21.5223C58.5767 21.5186 60.571 17.9856 64.5036 16.7157C64.5986 16.6841 64.6953 16.6558 64.7912 16.6283C64.6083 16.2147 64.4086 15.8003 64.1999 15.3917ZM68.8122 11.1983C67.5292 10.0686 65.8446 9.38339 63.9995 9.38339C63.4074 9.38339 62.8327 9.45496 62.2823 9.58727C62.3915 9.73375 63.7603 11.547 65.0066 13.8322C67.7563 12.8028 68.7943 11.225 68.8122 11.1983ZM65.2879 17.8341C65.2717 17.8395 65.2554 17.8441 65.2396 17.8499C60.9398 19.3467 59.5357 22.3632 59.5205 22.3961C60.7577 23.3568 62.3094 23.9365 63.9995 23.9365C65.0087 23.9365 65.97 23.7313 66.8446 23.3598C66.7367 22.724 66.3134 20.4954 65.2879 17.8341ZM68.0718 22.6949C69.7081 21.5922 70.8702 19.8414 71.1944 17.8133C71.0444 17.765 69.0055 17.1205 66.6533 17.4971C67.6092 20.1201 67.9976 22.2563 68.0718 22.6949ZM65.5675 14.9165C65.7367 15.2635 65.9005 15.6167 66.0517 15.9717C66.1055 16.099 66.158 16.2239 66.2092 16.3487C68.7127 16.0341 71.179 16.5634 71.2845 16.585C71.2678 14.8599 70.6498 13.2767 69.6273 12.0372C69.6136 12.0567 68.4448 13.7431 65.5675 14.9165Z" fill="white"/>
<path opacity="0.1" fill-rule="evenodd" clip-rule="evenodd" d="M96 16.6718C96 7.8352 103.163 0.671753 112 0.671753C120.837 0.671753 128 7.8352 128 16.6718C128 25.5083 120.837 32.6718 112 32.6718C103.163 32.6718 96 25.5083 96 16.6718Z" fill="white"/>
<path fill-rule="evenodd" clip-rule="evenodd" d="M111.521 13.6767L111.554 14.2304L110.995 14.1626C108.958 13.9027 107.178 13.0214 105.668 11.5413L104.929 10.8069L104.739 11.3492C104.336 12.5582 104.593 13.8349 105.433 14.6936C105.88 15.1682 105.779 15.2359 105.007 14.9535C104.739 14.8631 104.504 14.7953 104.481 14.8292C104.403 14.9083 104.672 15.9365 104.884 16.3432C105.175 16.9082 105.768 17.4618 106.417 17.7895L106.966 18.0493L106.317 18.0606C105.69 18.0606 105.668 18.0719 105.735 18.3092C105.959 19.0436 106.843 19.8232 107.828 20.1622L108.521 20.3995L107.917 20.761C107.022 21.2808 105.97 21.5745 104.918 21.5971C104.414 21.6084 104 21.6536 104 21.6875C104 21.8005 105.365 22.4332 106.16 22.6818C108.544 23.4162 111.375 23.0998 113.502 21.8457C115.013 20.9531 116.523 19.1792 117.229 17.4618C117.609 16.5466 117.99 14.8744 117.99 14.0722C117.99 13.5524 118.023 13.4847 118.65 12.8632C119.019 12.5017 119.366 12.1062 119.433 11.9932C119.545 11.7785 119.534 11.7785 118.963 11.9706C118.012 12.3096 117.878 12.2644 118.348 11.756C118.695 11.3944 119.109 10.7391 119.109 10.547C119.109 10.5131 118.941 10.5696 118.751 10.6713C118.549 10.7843 118.102 10.9537 117.766 11.0554L117.161 11.2475L116.613 10.8747C116.311 10.6713 115.886 10.4453 115.662 10.3775C115.091 10.2193 114.218 10.2419 113.703 10.4227C112.304 10.9311 111.42 12.2418 111.521 13.6767Z" fill="white"/>
<path opacity="0.1" fill-rule="evenodd" clip-rule="evenodd" d="M144 16.6718C144 7.8352 151.163 0.671753 160 0.671753C168.837 0.671753 176 7.8352 176 16.6718C176 25.5083 168.837 32.6718 160 32.6718C151.163 32.6718 144 25.5083 144 16.6718Z" fill="white"/>
<path fill-rule="evenodd" clip-rule="evenodd" d="M166.668 11.1714C167.402 11.3729 167.981 11.9667 168.177 12.7207C168.533 14.0872 168.533 16.9385 168.533 16.9385C168.533 16.9385 168.533 19.7897 168.177 21.1564C167.981 21.9104 167.402 22.5041 166.668 22.7057C165.337 23.0718 160 23.0718 160 23.0718C160 23.0718 154.663 23.0718 153.332 22.7057C152.598 22.5041 152.02 21.9104 151.823 21.1564C151.467 19.7897 151.467 16.9385 151.467 16.9385C151.467 16.9385 151.467 14.0872 151.823 12.7207C152.02 11.9667 152.598 11.3729 153.332 11.1714C154.663 10.8052 160 10.8052 160 10.8052C160 10.8052 165.337 10.8052 166.668 11.1714ZM158.4 14.5385V19.8718L162.667 17.2052L158.4 14.5385Z" fill="white"/>
</g>
<defs>
<clipPath id="clip0_322_41">
<rect width="176" height="32" fill="white" transform="translate(0 0.671753)"/>
</clipPath>
</defs>
</svg>
